<svg xmlns="http://www.w3.org/2000/svg" viewBox="0 0 50 50"><defs><style>.cls-1{fill:#fff;}.cls-2{fill:#8aadc0;}</style></defs><g id="Layer_2" data-name="Layer 2"><g id="Layer_1-2" data-name="Layer 1"><circle class="cls-1" cx="25" cy="25" r="25"/><path class="cls-2" d="M34.42,21.2a7,7,0,0,0-2.63.52l-1.12-2.17V16.09a.5.5,0,0,0-.33-.46l-2.64-1a.49.49,0,1,0-.33.92l2.34.86v2.8H20.05v-1h1.19a.5.5,0,0,0,0-1H18.18a.5.5,0,1,0,0,1h.88v1.35l-.95,2.08a6.29,6.29,0,0,0-2.37-.46,6.66,6.66,0,1,0,6.62,7.15H24.5a.48.48,0,0,0,.4-.2l5.17-7.48.83,1.55a6.51,6.51,0,0,0-3.13,5.6,6.66,6.66,0,1,0,6.65-6.65ZM15.74,33.52a5.67,5.67,0,0,1,0-11.34,5.36,5.36,0,0,1,1.94.37l-2.41,5.11v0a.3.3,0,0,0,0,.16v0a.32.32,0,0,0,0,.16v0s0,0,0,.07,0,0,.06.07v0a1.21,1.21,0,0,1,.14.1h0a.3.3,0,0,0,.16,0h5.64A5.61,5.61,0,0,1,15.74,33.52Zm.75-6.16L18.57,23a5.6,5.6,0,0,1,2.8,4.38Zm7.75,0H22.33A6.74,6.74,0,0,0,19,22.05l.89-1.88h9.32Zm10.15,6.16a5.66,5.66,0,0,1-3-10.45l2.6,5a.51.51,0,0,0,.43.27.68.68,0,0,0,.23-.07.49.49,0,0,0,.2-.66l-2.61-5a6.22,6.22,0,0,1,2.18-.43,5.67,5.67,0,0,1,0,11.34Z"/></g></g></svg>