<svg xmlns="http://www.w3.org/2000/svg" viewBox="0 0 50 50"><defs><style>.cls-1{fill:#fff;}.cls-2{fill:#8aadc0;}</style></defs><g id="Layer_2" data-name="Layer 2"><g id="Layer_1-2" data-name="Layer 1"><circle class="cls-1" cx="25" cy="25" r="25"/><path class="cls-2" d="M31.7,22.74,23,31.4a.82.82,0,0,0,.58,1.4h8.66A.82.82,0,0,0,33.1,32V23.32a.82.82,0,0,0-1.4-.58Zm-.24,8.42H25.6l5.86-5.86Z"/><path class="cls-2" d="M36.62,10.85,11.16,36.32a.82.82,0,0,0,.58,1.4H37.2A.82.82,0,0,0,38,36.9V11.43a.82.82,0,0,0-1.4-.58ZM34.2,36.08v-.82a.83.83,0,0,0-1.65,0v.82H30.37v-.82a.82.82,0,0,0-1.64,0v.82H26.54v-.82a.82.82,0,1,0-1.64,0v.82H22.71v-.82a.82.82,0,1,0-1.64,0v.82H18.88v-.82a.82.82,0,1,0-1.64,0v.82H13.72L36.38,13.42v3.52h-.82a.82.82,0,1,0,0,1.64h.82v2.19h-.82a.82.82,0,0,0,0,1.64h.82v2.18h-.82a.83.83,0,0,0,0,1.65h.82v2.18h-.82a.82.82,0,0,0,0,1.64h.82v2.19h-.82a.82.82,0,0,0,0,1.64h.82v2.19Z"/><path class="cls-2" d="M13.74,31.37C43.48,1.63,20.4,24.72,29.57,15.55h0a.71.71,0,0,0,.17-.24l2.1-4.42a.83.83,0,0,0-.16-.93.81.81,0,0,0-.93-.16l-4.42,2.09a.87.87,0,0,0-.23.16L10.26,27.89a.82.82,0,0,0,0,1.16l2.32,2.32A.82.82,0,0,0,13.74,31.37ZM27.18,15.61,16,26.76,14.87,25.6,26,14.45a2.65,2.65,0,0,0,1.16,1.16Zm1.25-1.36a1,1,0,0,1-1-1l2-.94ZM13.71,26.76l1.16,1.16-1.71,1.71L12,28.47Z"/></g></g></svg>