<?xml version="1.0" standalone="no"?>
<!DOCTYPE svg PUBLIC "-//W3C//DTD SVG 20010904//EN"
 "http://www.w3.org/TR/2001/REC-SVG-20010904/DTD/svg10.dtd">
<svg version="1.0" xmlns="http://www.w3.org/2000/svg"
 width="56.000000pt" height="20.000000pt" viewBox="0 0 56.000000 20.000000"
 preserveAspectRatio="xMidYMid meet">

<g transform="translate(0.000000,20.000000) scale(0.100000,-0.100000)"
fill="#000000" stroke="none">
<path d="M0 100 l0 -100 51 0 c45 0 55 4 85 34 24 25 34 43 34 66 0 23 -9 42
-34 66 -30 30 -40 34 -85 34 l-51 0 0 -100z m104 49 c50 -39 20 -124 -42 -117
-25 3 -27 7 -30 57 -2 29 -1 60 2 67 8 20 39 17 70 -7z"/>
<path d="M190 100 c0 -82 3 -100 15 -100 10 0 15 11 15 35 0 29 4 35 20 35 11
0 34 -16 51 -35 17 -19 37 -35 45 -35 19 0 17 9 -10 49 -22 34 -22 35 -3 54
13 13 17 26 12 45 -9 39 -32 52 -92 52 l-53 0 0 -100z m98 58 c31 -31 -9 -71
-53 -54 -15 5 -21 47 -8 59 11 11 48 8 61 -5z"/>
<path d="M370 100 c0 -93 1 -100 20 -100 18 0 20 7 20 73 l1 72 37 -70 c30
-58 42 -71 65 -73 l27 -3 0 100 c0 83 -3 101 -15 101 -12 0 -15 -16 -16 -82
l0 -83 -16 38 c-8 20 -19 37 -23 37 -5 0 -16 20 -26 45 -14 39 -21 45 -45 45
l-29 0 0 -100z"/>
</g>
</svg>
