<svg xmlns="http://www.w3.org/2000/svg" viewBox="0 0 50 50"><defs><style>.cls-1{fill:#fff;}.cls-2{fill:#8aadc0;}</style></defs><g id="Layer_2" data-name="Layer 2"><g id="Layer_1-2" data-name="Layer 1"><circle class="cls-1" cx="25" cy="25" r="25"/><path class="cls-2" d="M42.44,23.09,24.36,12.75a3.28,3.28,0,0,0-4.22.95l-3.5,5a2.86,2.86,0,0,0-.53,1.67,2.94,2.94,0,0,0,1.45,2.52l3.82,2.2-.69.92a2.84,2.84,0,0,0-.58,1.73,2.87,2.87,0,0,0,.61,1.74l-1,1.53H14.78V29a.66.66,0,0,0-.67-.66H11.44a.65.65,0,0,0-.66.66v6.67a.66.66,0,0,0,.66.67h2.67a.67.67,0,0,0,.67-.67V35h4.93A4,4,0,0,0,23,33.24l1.1-1.65a2.74,2.74,0,0,0,.64.09,3,3,0,0,0,2.6-1.47L28.1,29l5.68,3.28a.66.66,0,0,0,.33.09.58.58,0,0,0,.19,0,.66.66,0,0,0,.41-.34l.49-1,.24,0a4.67,4.67,0,0,0,4.67-4.67,4.47,4.47,0,0,0-.1-.87l2.4-1.2a.67.67,0,0,0,.37-.58A.71.71,0,0,0,42.44,23.09ZM13.44,35H12.11V29.68h1.33V35Zm8.48-2.52a2.65,2.65,0,0,1-2.21,1.19H14.78V32.35h4.93a1.34,1.34,0,0,0,1.11-.59l.92-1.39,1.14.69Zm4.31-3a1.75,1.75,0,0,1-2.34.59l-1.69-1a1.55,1.55,0,0,1-.45-2.26l.79-1L27,28.32Zm7.6,1.23-15.6-9a1.57,1.57,0,0,1-.79-1.36,1.53,1.53,0,0,1,.29-.9L19.4,17.1l16.5,9.51Zm2.05-1.11,1.39-2.79,1.48-.74a2,2,0,0,1,0,.24A3.33,3.33,0,0,1,35.88,29.64Zm.92-4.05L20.17,16l1.06-1.52a1.87,1.87,0,0,1,2.47-.55l17,9.71Z"/><circle class="cls-2" cx="32.78" cy="27.68" r="0.67"/></g></g></svg>