<?xml version="1.0" encoding="utf-8"?>
<!-- Generator: Adobe Illustrator 25.2.1, SVG Export Plug-In . SVG Version: 6.00 Build 0)  -->
<svg version="1.1" id="Vrstva_1" xmlns="http://www.w3.org/2000/svg" xmlns:xlink="http://www.w3.org/1999/xlink" x="0px" y="0px"
	 viewBox="0 0 109.3 56.7" style="enable-background:new 0 0 109.3 56.7;" xml:space="preserve">
<style type="text/css">
	.st0{fill:#00785F;}
	.st1{fill:#B7C7D1;}
</style>
<g>
	<g>
		<path class="st0" d="M30.7,51.7C13,51.7,4.1,40.2,4.1,28.4C4.1,17.4,12.4,7,26.9,5.1l4,3.6L34.6,5C35.8,5.1,37,5.3,38,5.5v9.7
			c-1.7-0.6-3.5-0.9-5.6-0.9c-9.7,0-16.5,5.8-16.5,13.9c0,8.2,6.8,14,16.3,14c2.4,0,4.2-0.2,5.9-0.6v9.6
			C35.9,51.6,33.6,51.7,30.7,51.7"/>
		<path class="st0" d="M87.6,51.7c-2.5,0-7.1-0.1-13.8-1.7c3.1-2.2,4.9-5.2,5.6-8.5c4.1,1.1,6.4,1,7.5,0.7c2.2-0.5,4.7-1.5,4.9-4.1
			c0.5-7.6-13.6-5.5-19.2-12.7c2.4-2.2,3.7-5.2,3.7-8.2c0-2.5-0.9-5.1-2.6-7.3c3.3-3.2,8.8-5.1,15.2-4.9c5.8,0.2,6.6,0.4,12.3,2.2
			v8.9c-4.5-1.9-8-2.1-11.1-2.1c-3.8,0-7.8,1.7-7.8,3.9c0,6.9,22.9,3.9,22.9,19.8C105.2,46.7,97.8,51.7,87.6,51.7"/>
		<path class="st0" d="M57.5,43.1h-6.4V32.3h8c4,0,7,1.8,7,5.2C66,41.4,63.8,43.1,57.5,43.1 M51.1,14.2h6c4.2,0,5.8,2.5,5.8,4.8
			c0,2.4-1.7,5-5.8,5h-6V14.2z M68.4,26.4c3.8-1.9,6.2-5.3,6.2-9.1c0-5.1-4.4-11.5-15.1-11.5H39.7v45.7H62
			c13.3,0,16.1-8.2,16.1-13.4C78.1,32.7,74.9,28,68.4,26.4"/>
		<path class="st0" d="M34.6,4.9c0,0-3.6,3.6-3.7,3.7c-0.1-0.1-4-3.6-4-3.6l0,0C13.5,6.8,4.1,16.4,4.1,28.4
			c0,11.3,8.3,23.4,26.6,23.4c2.8,0,5.2-0.1,7.3-0.5l0,0v-9.7l-0.1,0c-1.6,0.4-3.4,0.6-5.9,0.6c-9.5,0-16.2-5.7-16.2-13.9
			c0-8.1,6.8-13.8,16.5-13.8c2.1,0,3.8,0.3,5.6,0.9l0.1,0V5.5l0,0C36.9,5.2,35.8,5,34.6,4.9L34.6,4.9L34.6,4.9z"/>
		<path class="st0" d="M73.6,9.9L73.6,9.9L73.6,9.9c1.7,2.2,2.6,4.7,2.6,7.3c0,3-1.3,5.9-3.7,8.2l0,0l0,0c2.6,3.3,7,4.7,10.9,5.9
			c4.6,1.4,8.7,2.7,8.4,6.8c-0.1,2.1-1.8,3.5-4.8,4.1c-1,0.2-3.2,0.4-7.5-0.7l-0.1,0l0,0.1c-0.8,3.5-2.7,6.4-5.6,8.4L73.6,50l0.1,0
			c7,1.7,11.8,1.7,13.9,1.7c10.7,0,17.6-5.5,17.6-13.9c0-9.7-8.3-12.4-15-14.6c-4.2-1.4-7.9-2.6-7.9-5.3c0-2.3,4.1-3.9,7.7-3.9
			c3.1,0,6.6,0.2,11.1,2.1l0.1,0V7.2l0,0c-5.7-1.8-6.5-2-12.3-2.2C82.6,4.8,77.1,6.6,73.6,9.9"/>
		<path class="st0" d="M57.5,43h-6.4V32.4h7.9c4.3,0,6.9,2,6.9,5.1C66,41.5,63.6,43,57.5,43 M51.2,14.2h5.9c4.3,0,5.8,2.6,5.8,4.8
			c0,2.3-1.5,4.9-5.8,4.9h-5.9V14.2z M68.5,26.3c3.8-1.9,6.1-5.3,6.1-9.1c0-5.5-4.8-11.5-15.2-11.5H39.7v45.8H62
			c15,0,16.2-10.3,16.2-13.5C78.2,32.3,74.6,27.9,68.5,26.3"/>
		<path class="st1" d="M87.6,51.7c-2.5,0-7.1-0.1-13.8-1.7c3.1-2.2,4.9-5.2,5.6-8.5c4.1,1.1,6.4,1,7.5,0.7c2.2-0.5,4.7-1.5,4.9-4.1
			c0.5-7.6-13.6-5.5-19.2-12.7c2.4-2.2,3.7-5.2,3.7-8.2c0-2.5-0.9-5.1-2.6-7.3c3.3-3.3,8.8-5.1,15.2-4.9c5.8,0.2,6.6,0.4,12.3,2.2
			v8.9c-4.5-1.9-8-2.1-11.1-2.1c-3.8,0-7.8,1.7-7.8,3.9c0,6.9,22.9,3.9,22.9,19.8C105.2,46.7,97.8,51.7,87.6,51.7 M78,31.2
			c1.6,0.7,3.3,1.2,4.9,1.7c5.2,1.6,7.4,2.6,7.2,5.1c0,0.5-0.1,1.9-3.5,2.6c-0.5,0.1-2.6,0.4-6.9-0.8c0.1-0.6,0.1-1.2,0.1-1.8
			C79.8,35.5,79.1,33.2,78,31.2 M62,51.5H39.7V5.8h19.8c10.8,0,15.1,6.4,15.1,11.5c0,3.8-2.4,7.2-6.2,9.1c6.5,1.7,9.7,6.4,9.7,11.7
			C78.1,43.3,75.3,51.5,62,51.5 M38,17v22.9l0,0c-1.6,0.5-3.3,0.7-5.9,0.7c-8.6,0-14.6-5.1-14.6-12.3c0-7.2,6.1-12.2,14.9-12.2
			c2,0,3.8,0.3,5.5,0.9L38,17z M30.7,51.7C13,51.7,4.1,40.2,4.1,28.4C4.1,17.4,12.4,7,26.9,5.1l4,3.6L34.6,5C35.8,5.1,37,5.3,38,5.5
			v9.7c-1.7-0.6-3.5-0.9-5.6-0.9c-9.7,0-16.5,5.8-16.5,13.9c0,8.2,6.8,14,16.3,14c2.4,0,4.2-0.2,5.9-0.6v9.6
			C35.9,51.6,33.6,51.7,30.7,51.7 M90.8,21.8C87.3,20.6,84,19.6,84,18c0-0.8,2.6-2.3,6.1-2.3c3.1,0,6.2,0.1,10.4,2l2.3,1V6l-1.2-0.4
			c-6-1.9-6.9-2.1-12.8-2.3c-6.7-0.2-12.6,1.8-16.4,5.4C69.8,6,65.4,4.1,59.5,4.1H39.3L38.9,4c-1.3-0.3-2.7-0.6-4.1-0.7L34,3.3
			l-0.6,0.6c0,0-1.5,1.5-2.6,2.6c-1.2-1.1-3.4-3-3.4-3l-0.8,0.1C12.4,5.3,2.5,15.5,2.5,28.4c0,12,8.8,25,28.3,25
			c2.8,0,5.1-0.1,7.3-0.5v0.2H62c4,0,7.2-0.7,9.8-1.9l1.4,0.4c7.3,1.8,12.3,1.8,14.5,1.8c11.5,0,19.2-6.2,19.2-15.5
			C106.9,27,97.6,24,90.8,21.8"/>
		<path class="st1" d="M57.1,22.3h-4.3v-6.4h4.3c3.9,0,4.2,2.4,4.2,3.1C61.2,19.8,60.9,22.3,57.1,22.3 M57.1,14.2h-6v9.8h6
			c4.2,0,5.8-2.5,5.8-5C62.9,16.6,61.2,14.2,57.1,14.2"/>
		<path class="st1" d="M57.5,41.4h-4.8V34h6.3c1.2,0,5.3,0.2,5.3,3.5C64.4,39.7,63.9,41.4,57.5,41.4 M59.1,32.3h-8v10.8h6.4
			c6.3,0,8.5-1.7,8.5-5.6C66,34.1,63.1,32.3,59.1,32.3"/>
	</g>
</g>
</svg>
