<svg xmlns="http://www.w3.org/2000/svg" viewBox="0 0 50 50"><defs><style>.cls-1{fill:#fff;}.cls-2{fill:#8aadc0;}</style></defs><g id="Layer_2" data-name="Layer 2"><g id="Layer_1-2" data-name="Layer 1"><circle class="cls-1" cx="25" cy="25" r="25"/><path class="cls-2" d="M38.5,17.3a1.6,1.6,0,0,0-1.17-1.53,1.4,1.4,0,0,0,.12-.58,1.58,1.58,0,0,0-1.17-1.52,1.67,1.67,0,0,0,.11-.59,1.58,1.58,0,0,0-1.58-1.58H29.12a7.74,7.74,0,0,0-3.45.82l-.48.23H19.41a1.4,1.4,0,0,0-.58.12,1.59,1.59,0,0,0-3.06,0,1.4,1.4,0,0,0-.58-.12,1.58,1.58,0,0,0-1.52,1.17,1.67,1.67,0,0,0-.59-.11,1.58,1.58,0,0,0-1.58,1.58v5.69a8.34,8.34,0,0,0,1.05,3.93v5.78a1.4,1.4,0,0,0,.12.58,1.59,1.59,0,0,0,0,3.06,1.4,1.4,0,0,0-.12.58,1.58,1.58,0,0,0,1.17,1.52,1.67,1.67,0,0,0-.11.59,1.58,1.58,0,0,0,1.58,1.58h1.27A.53.53,0,0,0,17,38a.52.52,0,0,0-.53-.52H15.19a.53.53,0,1,1,0-1.06h1.06a.52.52,0,0,0,.52-.53.52.52,0,0,0-.52-.52H14.14a.53.53,0,0,1,0-1.06h2.11a.53.53,0,0,0,0-1.05H13.08a.53.53,0,0,1,0-1.06h3.17a.53.53,0,0,0,0-1.05H14.14a.53.53,0,0,1,0-1.06h5.27a.52.52,0,0,0,.53-.52V29h1.33a3.25,3.25,0,0,1,2.94,1.81.53.53,0,0,0,.47.3H29v4.74a1.51,1.51,0,0,0,.09.53H25.74a.53.53,0,0,0-.24.06l-.59.29a6.77,6.77,0,0,1-3,.71H21.2a.52.52,0,0,0-.53.52.53.53,0,0,0,.53.53h.73a7.71,7.71,0,0,0,3.45-.82l.48-.23h4.73a1.4,1.4,0,0,0,.58-.12,1.59,1.59,0,0,0,3.06,0,1.4,1.4,0,0,0,.58.12,1.58,1.58,0,0,0,1.52-1.17,1.67,1.67,0,0,0,.59.11,1.58,1.58,0,0,0,1.58-1.58V28.48a.51.51,0,0,0,0-.22,7.73,7.73,0,0,0-.77-2.59l-.23-.48V19.41a1.4,1.4,0,0,0-.12-.58A1.6,1.6,0,0,0,38.5,17.3ZM18.88,29H14.14a1.51,1.51,0,0,0-.53.09V24.68a.46.46,0,0,0-.06-.23,7.45,7.45,0,0,1-1-3.57V15.19a.53.53,0,0,1,1.06,0v1.06a.52.52,0,0,0,.53.52.52.52,0,0,0,.52-.52V14.14a.53.53,0,1,1,1.06,0v2.11a.53.53,0,0,0,1,0V13.08a.53.53,0,0,1,1.06,0v3.17a.53.53,0,0,0,1.05,0V14.14a.53.53,0,1,1,1.06,0v5.27a.52.52,0,0,0,.52.53H21v1.33a3.3,3.3,0,0,1-1.81,2.94.53.53,0,0,0-.3.47ZM21.27,28H19.94V25a4.31,4.31,0,0,0,2.11-3.73V19.94H25a4.31,4.31,0,0,0,3.73,2.11h1.33V25A4.31,4.31,0,0,0,28,28.73v1.33H25A4.31,4.31,0,0,0,21.27,28Zm16.18,6.86a.53.53,0,0,1-1.06,0V33.75a.52.52,0,0,0-.53-.52.52.52,0,0,0-.52.52v2.11a.53.53,0,0,1-1.06,0V33.75a.53.53,0,0,0-1.05,0v3.17a.53.53,0,1,1-1.06,0V33.75a.53.53,0,0,0-1.05,0v2.11a.53.53,0,0,1-1.06,0V30.59a.52.52,0,0,0-.52-.53H29V28.73a3.25,3.25,0,0,1,1.81-2.94.53.53,0,0,0,.3-.47V21h4.74a1.51,1.51,0,0,0,.53-.09v4.42a.46.46,0,0,0,.06.23l.29.59a6.77,6.77,0,0,1,.71,3Zm-.53-17H33.75a.53.53,0,0,0,0,1.05h2.11a.53.53,0,0,1,0,1.06H30.59a.52.52,0,0,0-.53.52V21H28.73a3.3,3.3,0,0,1-2.94-1.81.53.53,0,0,0-.47-.3H21V14.14a1.51,1.51,0,0,0-.09-.53h4.42a.46.46,0,0,0,.23-.06,7.45,7.45,0,0,1,3.57-1h5.69a.53.53,0,1,1,0,1.06H33.75a.52.52,0,0,0-.52.53.52.52,0,0,0,.52.52h2.11a.53.53,0,1,1,0,1.06H33.75a.53.53,0,0,0,0,1h3.17a.53.53,0,0,1,0,1.06Z"/><circle class="cls-2" cx="18.88" cy="37.81" r="0.53"/></g></g></svg>