<svg xmlns="http://www.w3.org/2000/svg" viewBox="0 0 50 50"><defs><style>.cls-1{fill:#fff;}.cls-2{fill:#8aadc0;}</style></defs><g id="Layer_2" data-name="Layer 2"><g id="Layer_1-2" data-name="Layer 1"><circle class="cls-1" cx="25" cy="25" r="25"/><g id="Page-1"><g id="_001-dish" data-name="001-dish"><path id="Shape" class="cls-2" d="M31.25,20.12,30.91,19a2.45,2.45,0,0,0-4.64,0l-.34,1.13a6.32,6.32,0,0,0-.18,2.93A2.75,2.75,0,0,0,27.17,25l-.38,8.58a1.7,1.7,0,0,0,.43,1.31,1.86,1.86,0,0,0,2.63.12l.12-.12a1.67,1.67,0,0,0,.42-1.28L30,25a2.77,2.77,0,0,0,1.42-1.92A6.32,6.32,0,0,0,31.25,20.12Zm-.87,2.75a1.7,1.7,0,0,1-1.11,1.27.51.51,0,0,0-.34.52l.4,9a.61.61,0,0,1-.16.48.82.82,0,0,1-1.16,0,.65.65,0,0,1-.16-.52l.41-9a.53.53,0,0,0-.35-.52,1.7,1.7,0,0,1-1.11-1.27A5.3,5.3,0,0,1,27,20.43l.34-1.13a1.38,1.38,0,0,1,1.78-.81,1.37,1.37,0,0,1,.82.81l.34,1.13A5.3,5.3,0,0,1,30.38,22.87Z"/><path id="Path" class="cls-2" d="M23,17.33a.54.54,0,0,0-.53.54v4.58L21,23.89a.54.54,0,0,0-.15.4l.46,9.34a.69.69,0,0,1-.2.54.75.75,0,0,1-1.06,0h0a.74.74,0,0,1-.21-.54l.47-9.34a.5.5,0,0,0-.15-.4l-1.45-1.44V17.87a.53.53,0,0,0-.53-.54.54.54,0,0,0-.53.54v4.8a.51.51,0,0,0,.15.37l1.44,1.44-.46,9.1a1.8,1.8,0,0,0,3.6.17v-.17l-.45-9.1L23.37,23a.51.51,0,0,0,.15-.37v-4.8A.53.53,0,0,0,23,17.33Z"/><path id="Path-2" data-name="Path" class="cls-2" d="M19.79,17.33a.54.54,0,0,0-.53.54v4.26a.54.54,0,0,0,.53.54.53.53,0,0,0,.53-.54V17.87A.53.53,0,0,0,19.79,17.33Z"/><path id="Path-3" data-name="Path" class="cls-2" d="M21.39,17.33a.54.54,0,0,0-.53.54v4.26a.54.54,0,0,0,.53.54.53.53,0,0,0,.53-.54V17.87A.53.53,0,0,0,21.39,17.33Z"/><path id="Shape-2" data-name="Shape" class="cls-2" d="M24.59,9.33a16,16,0,1,0,16,16A16,16,0,0,0,24.59,9.33Zm0,30.94A14.94,14.94,0,1,1,39.52,25.33,14.93,14.93,0,0,1,24.59,40.27Z"/><path id="Path-4" data-name="Path" class="cls-2" d="M26.32,35.34a.53.53,0,0,0-.58-.47h0a10.67,10.67,0,0,1-2.26,0,.52.52,0,0,0-.59.47.53.53,0,0,0,.47.59,11.61,11.61,0,0,0,2.5,0A.53.53,0,0,0,26.32,35.34Z"/><path id="Path-5" data-name="Path" class="cls-2" d="M32.75,18.46A.54.54,0,0,0,32,18.4h0a.53.53,0,0,0-.07.75,9.59,9.59,0,0,1-.56,13,.54.54,0,0,0,0,.76.53.53,0,0,0,.75,0A10.67,10.67,0,0,0,32.75,18.46Z"/><g id="Group"><path id="Path-6" data-name="Path" class="cls-2" d="M21.06,16.43Z"/><path id="Path-7" data-name="Path" class="cls-2" d="M27.11,15a10.85,10.85,0,0,0-6.28.39.53.53,0,0,0,.19,1,.57.57,0,0,0,.18,0A9.68,9.68,0,0,1,26.86,16a.54.54,0,0,0,.64-.39A.54.54,0,0,0,27.11,15Z"/></g><path id="Path-8" data-name="Path" class="cls-2" d="M17.79,32.11a9.59,9.59,0,0,1-1-12.42.54.54,0,0,0-.11-.75.53.53,0,0,0-.75.11h0A10.67,10.67,0,0,0,17,32.86a.54.54,0,0,0,.76,0A.53.53,0,0,0,17.79,32.11Z"/></g></g></g></g></svg>