<svg xmlns="http://www.w3.org/2000/svg" viewBox="0 0 50 50"><defs><style>.cls-1{fill:#fff;}.cls-2{fill:#8aadc0;}</style></defs><g id="Layer_2" data-name="Layer 2"><g id="Layer_1-2" data-name="Layer 1"><circle class="cls-1" cx="25" cy="25" r="25"/><path class="cls-2" d="M29.61,29.39l2.52-4a8.39,8.39,0,0,0,1.56-4.89,8.48,8.48,0,1,0-15.35,4.95l2.48,3.9c-2.65.41-7.16,1.62-7.16,4.3,0,1,.64,2.37,3.67,3.45a24.23,24.23,0,0,0,7.88,1.17c5.55,0,11.56-1.56,11.56-4.62C36.77,31,32.26,29.8,29.61,29.39Zm-10-4.74,0,0a6.95,6.95,0,1,1,12.55-4.07,6.86,6.86,0,0,1-1.27,4l-5.67,8.88Zm5.58,12.12c-6.06,0-10-1.78-10-3.08,0-.87,2-2.31,6.54-2.87l2.83,4.44a.76.76,0,0,0,1.29,0l2.83-4.44c4.51.56,6.54,2,6.54,2.87C35.23,35,31.31,36.77,25.21,36.77Z"/><path class="cls-2" d="M25.21,16.69a3.85,3.85,0,1,0,3.86,3.85A3.86,3.86,0,0,0,25.21,16.69Zm0,6.16a2.31,2.31,0,1,1,2.32-2.31A2.31,2.31,0,0,1,25.21,22.85Z"/></g></g></svg>