<?xml version="1.0" encoding="UTF-8"?>
<svg width="69px" height="26px" viewBox="0 0 69 26" version="1.1" xmlns="http://www.w3.org/2000/svg" xmlns:xlink="http://www.w3.org/1999/xlink">
    <title>logo</title>
    <defs>
        <polygon id="path-1" points="0.350697561 0.196204878 20.7788927 0.196204878 20.7788927 24.8780488 0.350697561 24.8780488"></polygon>
        <polygon id="path-3" points="0 0.196329268 20.7096902 0.196329268 20.7096902 24.8778415 0 24.8778415"></polygon>
        <polygon id="path-5" points="0.220253659 0.196163415 21.1998293 0.196163415 21.1998293 24.8780488 0.220253659 24.8780488"></polygon>
    </defs>
    <g id="Symbols" stroke="none" stroke-width="1" fill="none" fill-rule="evenodd">
        <g id="Desktop/header" transform="translate(-214.000000, -25.000000)">
            <g id="logo" transform="translate(214.000000, 25.218471)">
                <g id="Group-3" transform="translate(23.219512, 0.000000)">
                    <mask id="mask-2" fill="white">
                        <use xlink:href="#path-1"></use>
                    </mask>
                    <g id="Clip-2"></g>
                    <path d="M20.7788927,22.1278634 L20.7788927,24.8781317 L16.6536976,24.8781317 L10.4826976,17.2621317 C9.18572195,15.6869366 8.44186829,15.6400829 5.99262439,15.6400829 C5.2520878,15.6400829 4.44106341,16.1334976 4.44106341,17.1207415 L4.44106341,24.8781317 L0.350697561,24.8781317 L0.350697561,0.196204878 L13.9386732,0.196204878 L13.9386732,1.57113171 L16.6536976,1.57113171 L16.6536976,2.94647317 L18.0282098,2.94647317 L18.0282098,5.73198537 L19.4039659,5.73198537 L19.4039659,9.78669268 L18.0282098,9.78669268 L18.0282098,12.5373756 L16.6536976,12.5373756 L16.6536976,13.9123024 L13.9386732,13.9123024 L13.9386732,15.2519854 L15.2783561,15.2519854 L15.2783561,16.6269122 L16.6536976,16.6269122 L16.6536976,19.3771805 L18.0282098,19.3771805 L18.0282098,20.7877659 L19.4039659,20.7877659 L19.4039659,22.1278634 L20.7788927,22.1278634 Z M9.98928293,4.14518049 L6.30981951,4.14518049 C5.07545366,4.21566829 4.44106341,5.20332683 4.44106341,6.08483902 L4.44106341,10.245278 C4.44106341,11.197278 5.07545366,12.0787902 6.30981951,12.149278 L9.98928293,12.149278 C12.5633317,12.149278 14.6435512,10.844839 14.6435512,8.20030244 C14.6435512,5.66149756 12.4223561,4.14518049 9.98928293,4.14518049 L9.98928293,4.14518049 Z" id="Fill-1" fill="#FEFEFE" mask="url(#mask-2)"></path>
                </g>
                <g id="Group-6">
                    <mask id="mask-4" fill="white">
                        <use xlink:href="#path-3"></use>
                    </mask>
                    <g id="Clip-5"></g>
                    <path d="M19.3700073,16.6622805 L20.7096902,16.6622805 L20.7096902,8.41189024 L19.3700073,8.41189024 L19.3700073,5.69686585 L17.9950805,5.69686585 L17.9950805,4.32152439 L16.619739,4.32152439 L16.619739,2.94618293 L15.2443976,2.94618293 L15.2443976,1.5712561 L12.5293732,1.5712561 L12.5293732,0.196329268 L-4.14634146e-05,0.196329268 L-4.14634146e-05,24.8778415 L12.5293732,24.8778415 L12.5293732,23.5029146 L15.2443976,23.5029146 L15.2443976,22.1279878 L16.619739,22.1279878 L16.619739,20.7526463 L17.9950805,20.7526463 L17.9950805,19.3773049 L19.3700073,19.3773049 L19.3700073,16.6622805 Z M6.48773902,20.9641098 C4.86610488,20.9641098 4.09032439,20.3293049 4.09032439,18.8129878 L4.09032439,6.26076829 C4.09032439,4.74486585 4.86610488,4.11006098 6.48773902,4.11006098 L8.61564146,4.11006098 C12.9174707,4.28628049 16.4082756,8.2000122 16.4082756,12.5370854 C16.4082756,16.8032561 13.0232024,20.9641098 8.79186098,20.9641098 L6.48773902,20.9641098 Z" id="Fill-4" fill="#FEFEFE" mask="url(#mask-4)"></path>
                </g>
                <g id="Group-9" transform="translate(46.439024, 0.000000)">
                    <mask id="mask-6" fill="white">
                        <use xlink:href="#path-5"></use>
                    </mask>
                    <g id="Clip-8"></g>
                    <path d="M17.1095463,0.196163415 L17.1095463,19.8415293 L15.8146439,19.8415293 L15.8146439,16.6268707 L14.2937659,16.6268707 L14.2937659,13.912261 L12.8782049,13.912261 L12.8782049,11.1972366 L11.503278,11.1972366 L11.503278,8.41172439 L10.1279366,8.41172439 L10.1279366,5.72613902 L8.75300976,5.72613902 L8.75300976,2.94643171 L7.37766829,2.94643171 L7.37766829,0.196163415 L0.220253659,0.196163415 L0.220253659,24.8780902 L4.31020488,24.8780902 L4.31020488,7.66372439 C4.31020488,7.20513902 4.52166829,6.8879439 4.80320488,6.8879439 C5.15647317,6.8879439 5.40359512,7.16989512 5.68513171,7.69896829 L14.5284488,24.8780902 L21.1999122,24.8780902 L21.1999122,0.196163415 L17.1095463,0.196163415 Z" id="Fill-7" fill="#FEFEFE" mask="url(#mask-6)"></path>
                </g>
            </g>
        </g>
    </g>
</svg>