<svg xmlns="http://www.w3.org/2000/svg" viewBox="0 0 50 50"><defs><style>.cls-1{fill:#fff;}.cls-2{fill:#8aadc0;}</style></defs><g id="Layer_2" data-name="Layer 2"><g id="Layer_1-2" data-name="Layer 1"><circle class="cls-1" cx="25" cy="25" r="25"/><path class="cls-2" d="M35.42,12.45H33.85a.35.35,0,0,0-.38.31h0v5.06c0,.21.25.31.51.31s.5-.1.5-.31V16h.87a1.62,1.62,0,0,0,1.83-1.76V14.2A1.59,1.59,0,0,0,35.42,12.45Zm.75,1.88c0,.6-.31.89-.82.89h-.87V13.34h.87c.51,0,.82.29.82.89v.1Z"/><path class="cls-2" d="M27,14.43a7.8,7.8,0,0,0-11,0,.45.45,0,1,0,.64.64,6.9,6.9,0,0,1,9.76,0,.47.47,0,0,0,.32.14.43.43,0,0,0,.32-.14A.45.45,0,0,0,27,14.43Z"/><path class="cls-2" d="M25.1,16.31a5.15,5.15,0,0,0-7.28,0,.45.45,0,0,0,.64.64,4.26,4.26,0,0,1,6,0,.45.45,0,0,0,.64-.64Z"/><path class="cls-2" d="M23.25,18.16a2.53,2.53,0,0,0-3.58,0,.45.45,0,0,0,0,.64.46.46,0,0,0,.65,0,1.62,1.62,0,0,1,2.29,0,.45.45,0,0,0,.64-.64Z"/><path class="cls-2" d="M31.1,27c-.2-.11-.39-.23-.58-.36l-3-2a5.52,5.52,0,0,0-3.09-.95H18.89A5.48,5.48,0,0,0,15,25.31a7.42,7.42,0,0,1-1.81,1.33,1.18,1.18,0,0,0,.55,2.23h1.89a.45.45,0,0,0,.45-.45.46.46,0,0,0-.45-.46H13.73a.28.28,0,0,1-.28-.27.27.27,0,0,1,.15-.24,8.29,8.29,0,0,0,2-1.49,4.56,4.56,0,0,1,3.25-1.35h1.23V28H18.61a.47.47,0,0,0-.46.46.46.46,0,0,0,.46.45h12.5a.68.68,0,0,0,.68-.67A1.31,1.31,0,0,0,31.1,27ZM21,28V24.61h3.38A4.67,4.67,0,0,1,27,25.4l3,2c.21.14.43.28.65.4a.33.33,0,0,1,.14.12Z"/><path class="cls-2" d="M22.17,29.57H20.76a.46.46,0,1,0,0,.91h1.41a.46.46,0,0,0,0-.91Z"/><path class="cls-2" d="M40.27,29.19,40.13,29a3.72,3.72,0,0,0-2.48-1.74L36.48,27V21h3a1.14,1.14,0,0,0,1.14-1.14V11a1.14,1.14,0,0,0-1.14-1.14H30.64A1.14,1.14,0,0,0,29.51,11v3.37a.46.46,0,1,0,.91,0V11a.22.22,0,0,1,.22-.22h8.88a.22.22,0,0,1,.23.22v8.88a.23.23,0,0,1-.23.23H30.64a.23.23,0,0,1-.22-.23V17.32a.46.46,0,0,0-.91,0v2.55A1.14,1.14,0,0,0,30.64,21H34.1V26.5l-.61-.12a6.46,6.46,0,0,1-2.19-1l-3-2a6.87,6.87,0,0,0-3.87-1.19H18.89a6.85,6.85,0,0,0-4.88,2,6,6,0,0,1-3,1.62l-.65.14A2.11,2.11,0,0,0,8.67,28v4.42a1.33,1.33,0,0,0,.79,1.22l1.82.81A3,3,0,0,0,12.11,36a3,3,0,0,0,4.27,0,2.92,2.92,0,0,0,.77-1.32H32.29A3.11,3.11,0,0,0,33.06,36a3,3,0,0,0,2.14.89A3,3,0,0,0,37.34,36a2.92,2.92,0,0,0,.77-1.32H39A1.69,1.69,0,0,0,40.67,33V30.6A2.68,2.68,0,0,0,40.27,29.19ZM35,21h.56v5.78L35,26.68ZM15.74,35.33A2.11,2.11,0,0,1,12.32,33v0a.16.16,0,0,1,0-.07v0l0-.06,0,0,0-.05,0,0,0,0,0-.05,0,0,.05-.06,0,0,.07-.07h0l.07-.06,0,0,.06,0h0a2.13,2.13,0,0,1,2.66,0h0l.07,0v0l.08.07.08.08,0,0,0,0,0,.05,0,0,0,.06v0A2.11,2.11,0,0,1,15.74,35.33Zm21,0a2.11,2.11,0,0,1-3.26-2.65h0l.05-.07,0,0,.05-.05,0,0,0,0,.08-.08a2.11,2.11,0,0,1,3,0l.08.08,0,0,0,0,0,.05,0,0a.18.18,0,0,1,.05.07h0A2.11,2.11,0,0,1,36.7,35.33ZM39.76,33h0a.78.78,0,0,1-.78.78h-.75a3,3,0,0,0-.67-1.81h0l-.08-.09,0,0-.09-.1h0a2.91,2.91,0,0,0-1.4-.8,3,3,0,0,0-.74-.09,2.88,2.88,0,0,0-.59.06,3,3,0,0,0-1.55.83h0l-.09.1,0,0-.08.09h0a3,3,0,0,0-.67,1.81H17.27a3,3,0,0,0-.68-1.81h0l-.09-.1h0a1.14,1.14,0,0,0-.11-.11,2.5,2.5,0,0,0-.47-.39,3,3,0,0,0-3.8.39l-.1.1,0,0-.07.08,0,0-.07.09,0,0-.16.24h0a.75.75,0,0,0-.07.12h0a3,3,0,0,0-.32,1l-1.42-.63a.43.43,0,0,1-.25-.39V28a1.21,1.21,0,0,1,.95-1.17l.66-.14a6.85,6.85,0,0,0,3.46-1.87A6,6,0,0,1,18.89,23h5.53a6,6,0,0,1,3.36,1l3,2a7.34,7.34,0,0,0,2.53,1.17l4.16.83a2.86,2.86,0,0,1,1.87,1.32l.14.24a1.74,1.74,0,0,1,.27.94Z"/><path class="cls-2" d="M15.22,32.86a1.34,1.34,0,0,0-1-.41,1.4,1.4,0,0,0-1.38,1.38,1.34,1.34,0,0,0,.41,1,1.36,1.36,0,0,0,1,.41,1.39,1.39,0,0,0,1-2.36Zm-.64,1.31a.48.48,0,0,1-.34.14.47.47,0,0,1-.33-.14.48.48,0,0,1-.14-.34.48.48,0,0,1,.47-.47.48.48,0,0,1,.34.14A.48.48,0,0,1,14.58,34.17Z"/><path class="cls-2" d="M36.18,32.86a1.34,1.34,0,0,0-1-.41,1.36,1.36,0,0,0-1,.41,1.38,1.38,0,0,0,0,2,1.4,1.4,0,0,0,1,.41,1.4,1.4,0,0,0,1.39-1.39A1.36,1.36,0,0,0,36.18,32.86Zm-.64,1.31a.48.48,0,0,1-.34.14.47.47,0,0,1-.33-.14.46.46,0,0,1,0-.67.47.47,0,0,1,.33-.14.48.48,0,0,1,.34.14.47.47,0,0,1,.14.33A.48.48,0,0,1,35.54,34.17Z"/></g></g></svg>