<svg xmlns="http://www.w3.org/2000/svg" viewBox="0 0 50 50"><defs><style>.cls-1{fill:#fff;}.cls-2{fill:#8aadc0;}</style></defs><g id="Layer_2" data-name="Layer 2"><g id="Layer_1-2" data-name="Layer 1"><circle class="cls-1" cx="25" cy="25" r="25"/><g id="Page-1"><g id="Rooftop"><g id="_002-park" data-name="002-park"><path id="Shape" class="cls-2" d="M39.14,35.14H35.53V33.59h1a.52.52,0,0,0,.52-.52V31a.52.52,0,0,0-.52-.52H35v-1h.52a.52.52,0,0,0,.52-.52V26.88a.52.52,0,0,0-.52-.52H27.27a.51.51,0,0,0-.51.52v2.06a.51.51,0,0,0,.51.52h.52v1H26.24a.52.52,0,0,0-.52.52v2.06a.52.52,0,0,0,.52.52h1v1.55H19.53V32.53a6.18,6.18,0,0,0,4-10.37,4.47,4.47,0,0,0,.1-1,4.62,4.62,0,0,0-1.49-3.41,3.61,3.61,0,1,0-6.32,0,4.61,4.61,0,0,0-1.48,3.41,4.47,4.47,0,0,0,.1,1,6.12,6.12,0,0,0-1.65,4.2,6.19,6.19,0,0,0,5.68,6.17v2.61H10.24a.52.52,0,1,0,0,1h28.9a.52.52,0,1,0,0-1ZM13.85,26.36a5.16,5.16,0,0,1,1.55-3.68.53.53,0,0,0,.13-.51,3.62,3.62,0,0,1,1.32-3.86.52.52,0,0,0,.1-.72,2.58,2.58,0,1,1,4.13,0,.51.51,0,0,0,.1.72,3.61,3.61,0,0,1,1.31,3.86.53.53,0,0,0,.14.51,5.17,5.17,0,0,1-3.1,8.82V25.85a.52.52,0,1,0-1,0v2.7l-1.8-1.08a.51.51,0,0,0-.71.18.5.5,0,0,0,.18.7l2.33,1.4V31.5A5.18,5.18,0,0,1,13.85,26.36Zm13.94,1H35v1H27.79Zm1,2.07H34v1H28.82Zm-2.06,3.1v-1h9.29v1Zm1.54,2.58V33.59h6.2v1.55Z"/><path id="Path" class="cls-2" d="M41.21,35.14h-.52a.52.52,0,0,0,0,1h.52a.52.52,0,0,0,0-1Z"/></g></g></g></g></g></svg>