<svg xmlns="http://www.w3.org/2000/svg" viewBox="0 0 50 50"><defs><style>.cls-1{fill:#fff;}.cls-2{fill:#8aadc0;}</style></defs><g id="Layer_2" data-name="Layer 2"><g id="Layer_1-2" data-name="Layer 1"><circle class="cls-1" cx="25" cy="25" r="25"/><path class="cls-2" d="M37.21,14a.47.47,0,0,0,.47-.48v-1.5a.48.48,0,0,0-.47-.48H15.61a.48.48,0,0,0-.48.48v21.6a.48.48,0,0,0,.48.48h21.6a.48.48,0,0,0,.47-.48V15.15a.48.48,0,0,0-1,0v8.18h-1.9a.48.48,0,0,0,0,1h1.9v8.89H23.09V30.87a.48.48,0,0,0-.95,0v2.31H16.09V12.54h6.05v14.9a.48.48,0,0,0,.95,0V24.29h8.5a.48.48,0,0,0,0-1h-8.5V12.54H36.73v1A.47.47,0,0,0,37.21,14Z"/><path class="cls-2" d="M13.7,14.34l-1.58-2.53a.47.47,0,0,0-.81,0L9.74,14.34a.46.46,0,0,0,0,.48.5.5,0,0,0,.42.25h1.1v2a.48.48,0,1,0,.95,0v-2h1.1a.5.5,0,0,0,.42-.25A.48.48,0,0,0,13.7,14.34ZM11,14.11,11.72,13l.71,1.15Z"/><path class="cls-2" d="M13.71,30.9a.5.5,0,0,0-.42-.25h-1.1V18.34a.48.48,0,1,0-.95,0V30.65h-1.1a.5.5,0,0,0-.42.25.46.46,0,0,0,0,.48l1.57,2.53a.47.47,0,0,0,.81,0l1.58-2.53A.48.48,0,0,0,13.71,30.9Zm-2,1.86L11,31.61h1.43Z"/><path class="cls-2" d="M37.46,37.15l-2.53-1.58a.48.48,0,0,0-.48,0,.46.46,0,0,0-.25.42v1.1H18.62V36a.48.48,0,0,0-.25-.42.48.48,0,0,0-.48,0l-2.53,1.58a.47.47,0,0,0-.23.4.49.49,0,0,0,.23.41l2.53,1.57a.43.43,0,0,0,.25.07.46.46,0,0,0,.23-.06.47.47,0,0,0,.25-.41V38H34.2v1.1a.45.45,0,0,0,.25.41.38.38,0,0,0,.23.06.45.45,0,0,0,.25-.07L37.46,38a.48.48,0,0,0,.22-.41A.46.46,0,0,0,37.46,37.15Zm-19.8,1.12-1.15-.72,1.15-.71Zm17.49,0V36.84l1.15.71Z"/></g></g></svg>