<svg xmlns="http://www.w3.org/2000/svg" viewBox="0 0 50 50"><defs><style>.cls-1{fill:#fff;}.cls-2{fill:#8aadc0;}</style></defs><g id="Layer_2" data-name="Layer 2"><g id="Layer_1-2" data-name="Layer 1"><circle class="cls-1" cx="25" cy="25" r="25"/><path class="cls-2" d="M37.06,25a4.72,4.72,0,0,0,1.33-8.18.06.06,0,0,1,0,0c.05-.16.08-.32.12-.47l.06-.26a4.52,4.52,0,0,0,.06-.74A4.71,4.71,0,0,0,37.26,12a4.55,4.55,0,0,0-1.51-1,4.64,4.64,0,0,0-1.83-.38,4.7,4.7,0,0,0-1,.12h-.11a4.71,4.71,0,0,0-8.34,3,4.72,4.72,0,0,0-2.9,8.45c0,.11-.06.23-.09.34s-.06.21-.07.31a4.19,4.19,0,0,0-.09.86h0a4.67,4.67,0,0,0,5.48,4.65l.24-.05.5-.13.27-.11a2.71,2.71,0,0,0,.42-.2,2.29,2.29,0,0,0,.27-.14l.12-.07c.05.07.11.11.16.17s0,0,0,.07c0,1.12-.05,2.17-.11,3.12a35.6,35.6,0,0,1-1.94,9H24.48v-2.1h1A.52.52,0,0,0,26,37.6a.49.49,0,0,0,0-.51l-1-2.1a.52.52,0,0,0-.46-.29H23.43v-.52h1.05a.52.52,0,0,0,.52-.52.52.52,0,0,0-.52-.53H23.43v-.52h1.05a.52.52,0,0,0,.52-.53.52.52,0,0,0-.52-.52H23.43v-1H22.38v1H15v-1H14v1H12.41a.52.52,0,0,0-.52.52.52.52,0,0,0,.52.53H14v.52H12.41a.52.52,0,0,0-.52.53.52.52,0,0,0,.52.52H14v.52H12.93a.52.52,0,0,0-.46.29l-1.05,2.1a.49.49,0,0,0,0,.51.5.5,0,0,0,.45.25h1V40H9.79v1H38.16V40h-4.4a33.58,33.58,0,0,1-1.94-9c0-.54-.05-1.08-.07-1.61a4,4,0,0,0,.59.07A4.73,4.73,0,0,0,37.06,25ZM15,32.61h7.35v.52H15Zm0,1.57h7.35v.52H15Zm-1.77,1.57H24.15l.53,1H12.73ZM14,40v-2.1h9.45V40Zm16.79-8.89A34.31,34.31,0,0,0,32.64,40h-4.8a35.86,35.86,0,0,0,1.88-8.89c0-.73.07-1.54.09-2.37a4.26,4.26,0,0,0,.88.44C30.71,29.76,30.74,30.41,30.77,31.06ZM29.2,26.63l0-.05v0h0a.46.46,0,0,0-.28-.17h-.09a.55.55,0,0,0-.34.13,3.64,3.64,0,0,1-2.06.83c-.1,0-.2,0-.3,0a3.67,3.67,0,0,1-3.67-3.67,3.22,3.22,0,0,1,.08-.76.54.54,0,0,1,0-.1,3.35,3.35,0,0,1,.2-.61A3.67,3.67,0,0,1,26.05,20a.52.52,0,0,0,.52-.53.52.52,0,0,0-.52-.52,4.71,4.71,0,0,0-4,2.2,3.61,3.61,0,0,1-1.27-2.73,3.68,3.68,0,0,1,3.68-3.67,3.1,3.1,0,0,1,.49,0,.5.5,0,0,0,.44-.15.49.49,0,0,0,.15-.44,5,5,0,0,1,0-.5,3.67,3.67,0,0,1,6.68-2.11h0a.57.57,0,0,0,.22.16l.07,0a.5.5,0,0,0,.27,0h0a3.55,3.55,0,0,1,1.12-.18h0a3.63,3.63,0,0,1,2,.63,3.67,3.67,0,0,1,1.62,3.05,3.92,3.92,0,0,1-.07.68,1.33,1.33,0,0,1-.05.19,2.78,2.78,0,0,1-.17.51,3.63,3.63,0,0,1-2.11,2.06.53.53,0,0,0,.18,1,.39.39,0,0,0,.18,0,4.68,4.68,0,0,0,2.35-1.91,3.63,3.63,0,0,1-1.5,6.28.53.53,0,0,0-.39.53v.12a3.67,3.67,0,0,1-6.82,1.89Z"/></g></g></svg>