<?xml version="1.0" encoding="UTF-8" standalone="no"?>
<svg
   xmlns:dc="http://purl.org/dc/elements/1.1/"
   xmlns:cc="http://creativecommons.org/ns#"
   xmlns:rdf="http://www.w3.org/1999/02/22-rdf-syntax-ns#"
   xmlns:svg="http://www.w3.org/2000/svg"
   xmlns="http://www.w3.org/2000/svg"
   viewBox="0 0 313.70132 147.40134"
   height="147.40134"
   width="313.70132"
   xml:space="preserve"
   id="svg2"
   version="1.1"><metadata
     id="metadata8"><rdf:RDF><cc:Work
         rdf:about=""><dc:format>image/svg+xml</dc:format><dc:type
           rdf:resource="http://purl.org/dc/dcmitype/StillImage" /></cc:Work></rdf:RDF></metadata><defs
     id="defs6"><clipPath
       id="clipPath18"
       clipPathUnits="userSpaceOnUse"><path
         id="path16"
         d="M 0,110.551 H 235.276 V 0 H 0 Z" /></clipPath></defs><g
     transform="matrix(1.3333333,0,0,-1.3333333,0,147.40133)"
     id="g10"><g
       id="g12"><g
         clip-path="url(#clipPath18)"
         id="g14"><g
           transform="translate(204.6719,20.8193)"
           id="g20"><path
             id="path22"
             style="fill:#231f20;fill-opacity:1;fill-rule:nonzero;stroke:none"
             d="m 0,0 h 2.984 v 7.67 c 0,2.748 0.577,4.712 2.357,4.712 1.544,0 1.727,-1.545 1.727,-3.874 V 0 h 2.985 v 9.528 c 0,3.43 -0.916,4.895 -3.509,4.895 -1.727,0 -2.983,-0.916 -3.56,-2.408 v 2.068 H 0 Z m -7.616,-0.341 c 3.611,0 5.313,2.147 5.313,6.362 v 2.068 c 0,4.214 -1.702,6.36 -5.313,6.36 -3.665,0 -5.341,-2.146 -5.341,-6.36 V 6.021 c 0,-4.215 1.676,-6.362 5.341,-6.362 m 0,2.043 c -1.965,0 -2.251,1.779 -2.251,4.842 v 1.02 c 0,3.064 0.286,4.87 2.251,4.87 1.963,0 2.224,-1.806 2.224,-4.87 v -1.02 c 0,-3.063 -0.261,-4.842 -2.224,-4.842 m -10.628,14.214 h 2.983 v 3.063 h -2.983 z m 0,-15.916 h 2.983 v 14.083 h -2.983 z m -3.821,0 h 2.145 v 1.937 h -0.863 c -1.257,0 -1.544,0.288 -1.544,1.937 v 8.272 h 2.407 v 1.937 h -2.407 v 3.665 h -2.985 v -3.665 h -1.78 v -1.937 h 1.78 V 3.56 c 0,-2.644 0.655,-3.56 3.247,-3.56 m -11.493,1.597 c -1.152,0 -1.702,0.916 -1.702,2.224 v 0.236 c 0,1.362 0.498,2.303 4.111,3.168 V 5.183 c 0,-2.619 -0.943,-3.586 -2.409,-3.586 m -1.046,-1.938 c 1.832,0 2.984,0.76 3.664,2.278 L -30.861,0 h 2.722 c -0.157,1.204 -0.157,2.434 -0.157,4.503 0,0.392 0.026,4.842 0.026,5.261 0.027,3.796 -1.963,4.712 -4.869,4.712 -2.696,0 -4.973,-1.544 -4.973,-4.661 V 9.606 h 2.774 v 0.209 c 0,1.729 0.524,2.776 2.12,2.776 1.257,0 1.964,-0.654 1.964,-2.591 V 8.926 c -5.707,-1.622 -7.095,-2.905 -7.095,-5.13 V 3.508 c 0,-2.279 1.441,-3.849 3.745,-3.849 m -8.848,7.383 c 0,-3.482 -0.785,-5.34 -2.617,-5.34 -1.781,0 -2.148,1.779 -2.148,4.998 v 0.707 c 0,3.221 0.367,5 2.148,5 1.832,0 2.617,-1.858 2.617,-5.365 m -7.854,1.02 V 6.047 c 0,-4.241 1.388,-6.388 4.293,-6.388 1.676,0 2.985,1.048 3.456,2.383 V 0 h 2.985 v 18.978 h -2.985 v -6.912 c -0.471,1.336 -1.78,2.383 -3.456,2.383 -2.905,0 -4.293,-2.146 -4.293,-6.387 M -63.478,0 h 2.986 v 7.67 c 0,2.748 0.575,4.712 2.355,4.712 1.544,0 1.728,-1.545 1.728,-3.874 V 0 h 2.983 v 9.528 c 0,3.43 -0.916,4.895 -3.507,4.895 -1.727,0 -2.984,-0.916 -3.559,-2.408 v 2.068 h -2.986 z m -9.003,-0.314 c 1.648,0 2.721,0.967 3.297,2.434 V 0 h 2.879 v 14.083 h -2.984 V 6.438 c 0,-2.748 -0.524,-4.632 -2.173,-4.632 -1.465,0 -1.623,1.571 -1.623,3.796 v 8.481 h -2.983 V 4.79 c 0,-3.43 0.889,-5.104 3.587,-5.104 m -11.022,-0.027 c 3.613,0 5.315,2.147 5.315,6.362 v 2.068 c 0,4.214 -1.702,6.36 -5.315,6.36 -3.664,0 -5.34,-2.146 -5.34,-6.36 V 6.021 c 0,-4.215 1.676,-6.362 5.34,-6.362 m 0,2.043 c -1.963,0 -2.251,1.779 -2.251,4.842 v 1.02 c 0,3.064 0.288,4.87 2.251,4.87 1.964,0 2.226,-1.806 2.226,-4.87 v -1.02 c 0,-3.063 -0.262,-4.842 -2.226,-4.842 M -99.261,0 h 3.115 v 8.586 h 5.707 v 2.355 h -5.707 v 5.681 h 6.309 v 2.356 h -9.424 z" /></g><g
           transform="translate(153.916,46.123)"
           id="g24"><path
             id="path26"
             style="fill:#231f20;fill-opacity:1;fill-rule:nonzero;stroke:none"
             d="m 0,0 h 2.984 v 7.146 c 0,2.906 0.629,3.901 2.723,3.901 h 0.916 v 3.036 H 6.1 c -1.859,0 -2.775,-1.492 -3.142,-3.089 v 3.089 H 0 Z m 1.963,15.812 h 2.566 l 2.984,3.167 H 5.078 L 3.246,17.355 1.414,18.979 h -2.461 z m -10.627,0 h 2.015 l 3.142,3.167 H -6.989 Z M -7.879,1.598 c -1.152,0 -1.702,0.916 -1.702,2.224 v 0.236 c 0,1.361 0.498,2.303 4.11,3.168 V 5.184 c 0,-2.619 -0.942,-3.586 -2.408,-3.586 M -8.926,-0.34 c 1.832,0 2.984,0.759 3.665,2.277 L -5.183,0 h 2.723 c -0.157,1.204 -0.157,2.435 -0.157,4.503 0,0.393 0.026,4.842 0.026,5.261 0.026,3.797 -1.964,4.713 -4.869,4.713 -2.697,0 -4.974,-1.545 -4.974,-4.661 V 9.607 h 2.775 v 0.209 c 0,1.728 0.523,2.775 2.12,2.775 1.257,0 1.963,-0.653 1.963,-2.591 V 8.927 C -11.282,7.305 -12.669,6.021 -12.669,3.796 V 3.509 c 0,-2.279 1.439,-3.849 3.743,-3.849 M -24.763,0 h 2.984 v 7.67 c 0,2.748 0.576,4.712 2.356,4.712 1.545,0 1.728,-1.545 1.728,-3.874 V 0 h 2.984 v 9.529 c 0,3.429 -0.916,4.895 -3.508,4.895 -1.727,0 -2.984,-0.916 -3.56,-2.409 v 2.068 h -2.984 z m -9.79,8.691 c 0,2.408 0.472,3.769 2.356,3.769 1.859,0 2.304,-1.282 2.304,-3.743 V 8.508 h -4.66 z m 2.252,-9.031 c 2.774,0 5.026,1.256 5.026,4.818 v 0.129 h -2.801 V 4.503 c 0,-2.068 -0.812,-2.802 -2.173,-2.802 -1.963,0 -2.304,1.78 -2.304,4.766 v 0.34 h 7.487 v 0.889 c 0,4.555 -1.361,6.754 -5.183,6.754 -3.639,0 -5.288,-2.173 -5.288,-6.309 V 5.995 c 0,-4.109 1.571,-6.335 5.236,-6.335 M -42.824,0 h 2.984 v 18.979 h -2.984 z m -4.189,0 h 2.985 l -4.11,8.561 3.822,5.522 h -2.906 l -4.005,-5.836 v 10.732 h -2.984 V 0 h 2.984 v 4.137 l 1.309,1.884 z m -15.129,-0.34 c 3.717,0 5.837,1.938 5.837,5.472 0,3.402 -2.12,4.58 -4.712,5.731 l -2.198,1.021 c -1.231,0.524 -1.833,1.179 -1.833,2.749 0,1.572 0.89,2.539 2.487,2.539 1.78,0 2.775,-1.073 2.775,-3.351 v -0.156 h 3.036 v 0.156 c 0,3.901 -2.33,5.498 -5.785,5.498 -3.272,0 -5.497,-1.597 -5.497,-4.817 0,-3.141 1.57,-4.371 4.057,-5.497 l 2.042,-0.942 c 1.649,-0.758 2.592,-1.519 2.592,-3.298 0,-1.911 -0.943,-2.933 -2.801,-2.933 -2.069,0 -3.063,1.31 -3.063,4.084 v 0.21 h -3.063 v -0.21 c 0,-4.057 2.042,-6.256 6.126,-6.256" /></g><g
           transform="translate(174.9092,71.4277)"
           id="g28"><path
             id="path30"
             style="fill:#231f20;fill-opacity:1;fill-rule:nonzero;stroke:none"
             d="m 0,0 h 2.984 l -4.11,8.56 3.822,5.523 H -0.21 L -4.215,8.246 V 18.978 H -7.198 V 0 h 2.983 v 4.136 l 1.31,1.885 z m -16.988,8.691 c 0,2.408 0.47,3.769 2.355,3.769 1.86,0 2.305,-1.282 2.305,-3.743 V 8.508 h -4.66 z m 2.251,-9.031 c 2.774,0 5.025,1.256 5.025,4.816 v 0.131 h -2.801 V 4.503 c 0,-2.069 -0.81,-2.802 -2.172,-2.802 -1.962,0 -2.303,1.78 -2.303,4.765 v 0.34 h 7.486 v 0.89 c 0,4.555 -1.36,6.754 -5.183,6.754 -3.638,0 -5.288,-2.173 -5.288,-6.309 V 5.995 c 0,-4.11 1.572,-6.335 5.236,-6.335 m -1.1,16.151 h 2.566 l 2.985,3.167 h -2.436 l -1.832,-1.623 -1.833,1.623 h -2.46 z M -32.145,0 h 2.985 v 7.67 c 0,2.748 0.575,4.712 2.355,4.712 1.545,0 1.729,-1.545 1.729,-3.874 V 0 h 2.983 v 9.529 c 0,3.429 -0.916,4.894 -3.508,4.894 -1.726,0 -2.984,-0.916 -3.559,-2.408 v 2.068 h -2.985 z m -9.789,8.691 c 0,2.408 0.471,3.769 2.356,3.769 1.858,0 2.304,-1.282 2.304,-3.743 V 8.508 h -4.66 z m 2.251,-9.031 c 2.775,0 5.027,1.256 5.027,4.816 v 0.131 h -2.802 V 4.503 c 0,-2.069 -0.812,-2.802 -2.173,-2.802 -1.963,0 -2.303,1.78 -2.303,4.765 v 0.34 h 7.487 v 0.89 c 0,4.555 -1.362,6.754 -5.184,6.754 -3.639,0 -5.288,-2.173 -5.288,-6.309 V 5.995 c 0,-4.11 1.571,-6.335 5.236,-6.335 m -10.418,7.382 c 0,-3.482 -0.786,-5.341 -2.618,-5.341 -1.78,0 -2.146,1.78 -2.146,5 v 0.707 c 0,3.22 0.366,5 2.146,5 1.832,0 2.618,-1.859 2.618,-5.366 m -7.853,1.02 V 6.047 c 0,-4.241 1.388,-6.387 4.293,-6.387 1.676,0 2.984,1.047 3.455,2.382 V 0 h 2.984 v 18.978 h -2.984 v -6.911 c -0.471,1.336 -1.779,2.383 -3.455,2.383 -2.905,0 -4.293,-2.147 -4.293,-6.388 M -70.572,0 h 11.65 v 2.356 h -8.299 l 8.09,14.45 v 2.172 h -10.76 v -2.356 h 7.382 L -70.572,2.173 Z" /></g><g
           transform="translate(19.3638,15.1641)"
           id="g32"><path
             id="path34"
             style="fill:#231f20;fill-opacity:1;fill-rule:nonzero;stroke:none"
             d="M 0,0 -3.065,2.189 26.73,43.898 3.938,61.103 c -2.024,1.615 -2.785,3.231 -3.089,5.367 -0.311,2.188 0.249,4.366 1.577,6.133 1.326,1.765 3.171,2.909 5.195,3.219 2.046,0.314 4.149,-0.245 5.917,-1.573 2.386,-1.791 3.797,-4.261 3.776,-6.662 l -3.766,10e-4 c 0.01,1.173 -0.881,2.606 -2.271,3.65 -0.966,0.725 -2.034,1.023 -3.086,0.861 C 7.131,71.937 6.179,71.329 5.437,70.341 4.714,69.378 4.409,68.192 4.578,67 4.748,65.808 5.363,64.743 6.326,64.02 L 31.73,44.842 v 30.359 h 3.766 V 44.592 L 69.636,76.253 72.197,73.492 40.554,44.146 72.345,7.176 69.489,4.72 35.496,44.251 V 5.5 H 31.73 v 38.919 z" /></g></g></g></g></svg>